HIERARCHY
ROOT hip
{
	OFFSET 0.000000 0.000000 0.000000 
	CHANNELS 6 Xposition Yposition Zposition Zrotation Yrotation Xrotation
	JOINT abdomen
	{
		OFFSET 0.000000 20.688101 -0.731520 
		CHANNELS 3 Zrotation Xrotation Yrotation
		JOINT chest
		{
			OFFSET 0.000000 11.704300 -0.487680 
			CHANNELS 3 Zrotation Xrotation Yrotation
			JOINT neck
			{
				OFFSET 0.000000 22.189400 -2.194560 
				CHANNELS 3 Zrotation Xrotation Yrotation
				JOINT head
				{
					OFFSET -0.243840 7.071330 1.219200 
					CHANNELS 3 Zrotation Xrotation Yrotation
					JOINT leftEye
					{
						OFFSET 4.145280 8.046740 8.046720 
						CHANNELS 3 Zrotation Xrotation Yrotation
						End Site
						{
							OFFSET 1.000000 0.000000 0.000000 
						}
					}
					JOINT rightEye
					{
						OFFSET -3.657600 8.046740 8.046720 
						CHANNELS 3 Zrotation Xrotation Yrotation
						End Site
						{
							OFFSET 1.000000 0.000000 0.000000 
						}
					}
				}
			}
			JOINT rCollar
			{
				OFFSET -2.682240 19.263399 -4.876800 
				CHANNELS 3 Zrotation Xrotation Yrotation
				JOINT rShldr
				{
					OFFSET -8.778240 -1.950730 1.463040 
					CHANNELS 3 Zrotation Xrotation Yrotation
					JOINT rForeArm
					{
						OFFSET -28.174200 -1.711500 0.487680 
						CHANNELS 3 Zrotation Xrotation Yrotation
						JOINT rHand
						{
							OFFSET -22.587900 0.773209 7.071360 
							CHANNELS 3 Zrotation Xrotation Yrotation
							JOINT rThumb1
							{
								OFFSET -1.219200 -0.487915 3.413760 
								CHANNELS 3 Zrotation Xrotation Yrotation
								JOINT rThumb2
								{
									OFFSET -3.370350 -0.524490 3.413760 
									CHANNELS 3 Zrotation Xrotation Yrotation
									End Site
									{
										OFFSET -1.782710 -1.182140 1.430490 
									}
								}
							}
							JOINT rIndex1
							{
								OFFSET -7.759470 0.938293 5.608320 
								CHANNELS 3 Zrotation Xrotation Yrotation
								JOINT rIndex2
								{
									OFFSET -2.540570 -0.884171 1.565380 
									CHANNELS 3 Zrotation Xrotation Yrotation
									End Site
									{
										OFFSET -1.625190 -0.234802 1.165020 
									}
								}
							}
							JOINT rMid1
							{
								OFFSET -8.247140 1.182130 3.413760 
								CHANNELS 3 Zrotation Xrotation Yrotation
								JOINT rMid2
								{
									OFFSET -3.101650 -0.590103 1.064700 
									CHANNELS 3 Zrotation Xrotation Yrotation
									End Site
									{
										OFFSET -2.485470 -0.328903 0.837420 
									}
								}
							}
							JOINT rRing1
							{
								OFFSET -8.828220 0.546677 1.516780 
								CHANNELS 3 Zrotation Xrotation Yrotation
								JOINT rRing2
								{
									OFFSET -2.609340 -0.819778 -0.019849 
									CHANNELS 3 Zrotation Xrotation Yrotation
									End Site
									{
										OFFSET -2.338420 -0.294052 0.168128 
									}
								}
							}
							JOINT rPinky1
							{
								OFFSET -8.272020 -0.047791 -0.458400 
								CHANNELS 3 Zrotation Xrotation Yrotation
								JOINT rPinky2
								{
									OFFSET -1.827340 -0.647385 -0.700984 
									CHANNELS 3 Zrotation Xrotation Yrotation
									End Site
									{
										OFFSET -1.692250 -0.517670 -0.607171 
									}
								}
							}
						}
					}
				}
			}
			JOINT lCollar
			{
				OFFSET 2.682240 19.263399 -4.876800 
				CHANNELS 3 Zrotation Xrotation Yrotation
				JOINT lShldr
				{
					OFFSET 8.778240 -1.950730 1.463040 
					CHANNELS 3 Zrotation Xrotation Yrotation
					JOINT lForeArm
					{
						OFFSET 28.174200 -1.711500 0.487680 
						CHANNELS 3 Zrotation Xrotation Yrotation
						JOINT lHand
						{
							OFFSET 22.587900 0.773209 7.071360 
							CHANNELS 3 Zrotation Xrotation Yrotation
							JOINT lThumb1
							{
								OFFSET 1.219200 -0.487915 3.413760 
								CHANNELS 3 Zrotation Xrotation Yrotation
								JOINT lThumb2
								{
									OFFSET 3.370350 -0.524490 3.413760 
									CHANNELS 3 Zrotation Xrotation Yrotation
									End Site
									{
										OFFSET 1.782710 -1.182140 1.430490 
									}
								}
							}
							JOINT lIndex1
							{
								OFFSET 7.759470 0.938293 5.608320 
								CHANNELS 3 Zrotation Xrotation Yrotation
								JOINT lIndex2
								{
									OFFSET 2.540570 -0.884171 1.565380 
									CHANNELS 3 Zrotation Xrotation Yrotation
									End Site
									{
										OFFSET 1.625190 -0.234802 1.165020 
									}
								}
							}
							JOINT lMid1
							{
								OFFSET 8.247140 1.182130 3.413760 
								CHANNELS 3 Zrotation Xrotation Yrotation
								JOINT lMid2
								{
									OFFSET 3.101650 -0.590103 1.064700 
									CHANNELS 3 Zrotation Xrotation Yrotation
									End Site
									{
										OFFSET 2.485470 -0.328903 0.837420 
									}
								}
							}
							JOINT lRing1
							{
								OFFSET 8.828220 0.546677 1.516780 
								CHANNELS 3 Zrotation Xrotation Yrotation
								JOINT lRing2
								{
									OFFSET 2.609340 -0.819778 -0.019849 
									CHANNELS 3 Zrotation Xrotation Yrotation
									End Site
									{
										OFFSET 2.338420 -0.294052 0.168128 
									}
								}
							}
							JOINT lPinky1
							{
								OFFSET 8.272020 -0.047791 -0.458400 
								CHANNELS 3 Zrotation Xrotation Yrotation
								JOINT lPinky2
								{
									OFFSET 1.827340 -0.647385 -0.700984 
									CHANNELS 3 Zrotation Xrotation Yrotation
									End Site
									{
										OFFSET 1.692250 -0.517670 -0.607171 
									}
								}
							}
						}
					}
				}
			}
		}
	}
	JOINT rButtock
	{
		OFFSET -8.778240 4.350840 1.219200 
		CHANNELS 3 Zrotation Xrotation Yrotation
		JOINT rThigh
		{
			OFFSET 0.000000 -1.706870 -2.194560 
			CHANNELS 3 Zrotation Xrotation Yrotation
			JOINT rShin
			{
				OFFSET 0.000000 -36.819901 0.731520 
				CHANNELS 3 Zrotation Xrotation Yrotation
				JOINT rFoot
				{
					OFFSET 0.731520 -45.110401 -5.120640 
					CHANNELS 3 Zrotation Xrotation Yrotation
					End Site
					{
						OFFSET -1.122100 -3.699640 12.103000 
					}
				}
			}
		}
	}
	JOINT lButtock
	{
		OFFSET 8.778240 4.350840 1.219200 
		CHANNELS 3 Zrotation Xrotation Yrotation
		JOINT lThigh
		{
			OFFSET 0.000000 -1.706870 -2.194560 
			CHANNELS 3 Zrotation Xrotation Yrotation
			JOINT lShin
			{
				OFFSET 0.000000 -36.819901 0.731520 
				CHANNELS 3 Zrotation Xrotation Yrotation
				JOINT lFoot
				{
					OFFSET -0.731520 -45.110401 -5.120640 
					CHANNELS 3 Zrotation Xrotation Yrotation
					End Site
					{
						OFFSET 1.122100 -3.699640 12.103000 
					}
				}
			}
		}
	}
}
MOTION
Frames: 4
Frame Time: 0.040000
0.000000 0.000000 -190.000000 0.000000 0.000000 0.000000 -1.567300 13.360800 -1.337800 -0.010200 -0.011800 0.049900 -7.607600 -3.575500 -3.672900 19.998501 -8.234700 -5.350700 0.000000 0.000000 0.000000 0.000000 0.000000 0.000000 0.000000 0.000000 0.000000 80.651100 32.326900 -2.166300 -10.901100 -8.218200 33.468102 8.557500 29.371599 5.634900 0.000000 0.000000 0.000000 0.000000 0.000000 0.000000 0.000000 0.000000 0.000000 0.023500 0.013400 0.013600 0.000000 0.000000 0.000000 0.029900 0.008500 0.015800 0.000000 0.000000 0.000000 0.015400 0.020800 0.035000 0.000000 0.000000 0.000000 0.027600 -0.022200 -0.029200 0.000000 0.000000 0.000000 -80.746597 22.746901 16.699800 10.498300 -7.651100 -18.066401 -15.839400 3.855100 -13.781500 0.000000 0.000000 0.000000 0.000000 0.000000 0.000000 0.000000 0.000000 0.000000 -0.013200 0.006100 -0.005200 0.000000 0.000000 0.000000 -0.032800 0.030100 -0.004900 0.000000 0.000000 0.000000 -0.030000 0.004100 -0.032300 0.000000 0.000000 0.000000 -0.003800 -0.018400 0.013800 0.000000 0.000000 0.000000 -2.760200 1.233400 2.576000 -0.815800 14.731200 -2.915700 -1.108900 -8.708600 -7.745500 0.000000 0.000000 0.000000 -0.239200 -19.879101 -18.233200 5.690300 37.115799 -0.418700 3.458600 -11.175500 6.456200 
0.000000 0.000000 -190.000000 0.000000 0.000000 0.000000 -1.567300 13.360800 -1.337800 -0.010200 -0.011800 0.049900 -7.607600 -3.575500 -3.672900 19.998501 -8.234700 -5.350700 0.000000 0.000000 0.000000 0.000000 0.000000 0.000000 0.000000 0.000000 0.000000 80.651100 32.326900 -2.166300 -10.901100 -8.218200 33.468102 8.557500 29.371599 5.634900 0.000000 0.000000 0.000000 0.000000 0.000000 0.000000 0.000000 0.000000 0.000000 0.023500 0.013400 0.013600 0.000000 0.000000 0.000000 0.029900 0.008500 0.015800 0.000000 0.000000 0.000000 0.015400 0.020800 0.035000 0.000000 0.000000 0.000000 0.027600 -0.022200 -0.029200 0.000000 0.000000 0.000000 -80.746597 22.746901 16.699800 10.498300 -7.651100 -18.066401 -15.839400 3.855100 -13.781500 0.000000 0.000000 0.000000 0.000000 0.000000 0.000000 0.000000 0.000000 0.000000 -0.013200 0.006100 -0.005200 0.000000 0.000000 0.000000 -0.032800 0.030100 -0.004900 0.000000 0.000000 0.000000 -0.030000 0.004100 -0.032300 0.000000 0.000000 0.000000 -0.003800 -0.018400 0.013800 0.000000 0.000000 0.000000 -2.760200 1.233400 2.576000 -0.815800 14.731200 -2.915700 -1.108900 -8.708600 -7.745500 0.000000 0.000000 0.000000 -0.239200 -19.879101 -18.233200 5.690300 37.115799 -0.418700 3.458600 -11.175500 6.456200 
0.000000 0.000000 -190.000000 0.000000 0.000000 0.000000 -1.249000 13.410700 -1.354100 -0.010200 -0.011800 0.049900 -7.693700 -4.025200 -3.018900 18.309401 -4.579100 -5.273100 0.000000 0.000000 0.000000 0.000000 0.000000 0.000000 0.000000 0.000000 0.000000 79.451302 30.892401 -2.936500 -10.930700 -8.008000 31.408800 7.884700 30.089199 6.019300 0.000000 0.000000 0.000000 0.000000 0.000000 0.000000 0.000000 0.000000 0.000000 0.023500 0.013400 0.013600 0.000000 0.000000 0.000000 0.029900 0.008500 0.015800 0.000000 0.000000 0.000000 0.015400 0.020800 0.035000 0.000000 0.000000 0.000000 0.027600 -0.022200 -0.029200 0.000000 0.000000 0.000000 -79.179802 18.804899 16.371099 14.930900 -10.296700 -21.540001 -14.449100 2.506300 -12.530400 0.000000 0.000000 0.000000 0.000000 0.000000 0.000000 0.000000 0.000000 0.000000 -0.013200 0.006100 -0.005200 0.000000 0.000000 0.000000 -0.032800 0.030100 -0.004900 0.000000 0.000000 0.000000 -0.030000 0.004100 -0.032300 0.000000 0.000000 0.000000 -0.003800 -0.018400 0.013800 0.000000 0.000000 0.000000 -3.118300 2.298300 2.476300 -1.305600 16.743799 -2.958700 -1.162000 -8.814800 -7.684400 0.000000 0.000000 0.000000 -0.303100 -18.719000 -20.133900 5.823800 37.160599 -0.373700 3.500900 -10.983300 6.242700 
0.000000 0.000000 -190.000000 0.000000 0.000000 0.000000 -1.705700 13.785600 -1.224500 -0.010200 -0.011800 0.049900 -7.715600 0.345700 -3.240000 16.618401 -2.129700 -4.938800 0.000000 0.000000 0.000000 0.000000 0.000000 0.000000 0.000000 0.000000 0.000000 77.013802 30.951200 -2.033100 -11.068100 -7.572800 31.296700 7.523000 29.700100 6.428500 0.000000 0.000000 0.000000 0.000000 0.000000 0.000000 0.000000 0.000000 0.000000 0.023500 0.013400 0.013600 0.000000 0.000000 0.000000 0.029900 0.008500 0.015800 0.000000 0.000000 0.000000 0.015400 0.020800 0.035000 0.000000 0.000000 0.000000 0.027600 -0.022200 -0.029200 0.000000 0.000000 0.000000 -77.623199 18.635300 14.742900 15.310700 -11.300200 -22.461399 -13.908700 2.375500 -12.090600 0.000000 0.000000 0.000000 0.000000 0.000000 0.000000 0.000000 0.000000 0.000000 -0.013200 0.006100 -0.005200 0.000000 0.000000 0.000000 -0.032800 0.030100 -0.004900 0.000000 0.000000 0.000000 -0.030000 0.004100 -0.032300 0.000000 0.000000 0.000000 -0.003800 -0.018400 0.013800 0.000000 0.000000 0.000000 -4.457200 -11.892400 -1.009100 -0.904600 19.142799 -2.815500 -1.228400 -8.831700 -7.803400 0.000000 0.000000 0.000000 -0.068600 -19.816200 -17.043900 5.636800 36.834599 -0.504800 3.451800 -10.873900 5.963000 
